# xmcd
#
# Track frame offsets:
#	150
#	27150
#	62737
#	92604
#	112929
#	132322
#	166465
#	182185
#	216930
#	239825
#
# Disc length: 3585 seconds
#
# Revision: 1
# Processed by: cddbd v1.5.2PL0 Copyright (c) Steve Scherf et al.
# Submitted via: audiograbber 1.83.01
#
DISCID=8d0dff0a
DTITLE=Jong, Michael de - 23, Rue Boyer
DYEAR=2004
DGENRE=Rock
TTITLE0=For everyone
TTITLE1=Private interlude
TTITLE2=Neutral ground
TTITLE3=All along the watchtower
TTITLE4=Second hand shoes
TTITLE5=Immaculate deception
TTITLE6=Pretty girl why
TTITLE7=Park bench serenade
TTITLE8=Grown man moan
TTITLE9=Somewhere along the way
EXTD=
EXTT0=
EXTT1=
EXTT2=
EXTT3=
EXTT4=
EXTT5=
EXTT6=
EXTT7=
EXTT8=
EXTT9=
PLAYORDER=
